<svg xmlns="http://www.w3.org/2000/svg" version="1.1" xmlns:xlink="http://www.w3.org/1999/xlink" width="5000" height="5000"><svg xmlns="http://www.w3.org/2000/svg" version="1.1" xmlns:xlink="http://www.w3.org/1999/xlink" width="5000" height="5000"><svg xmlns="http://www.w3.org/2000/svg" width="5000" height="5000" version="1.0" viewBox="0 0 3750 3750"><defs><clipPath id="a"><path d="M0 0h938v3440H0z"></path></clipPath><clipPath id="b"><path d="M0 0h1195v2599H0z"></path></clipPath><clipPath id="c"><path d="M0 0h481v2947H0z"></path></clipPath><clipPath id="d"><path d="M2276.41 1441H3642v1101H2276.41Zm0 0"></path></clipPath><clipPath id="e"><path d="M2276.41 1494H3588v994H2276.41Zm0 0"></path></clipPath><clipPath id="f"><path d="M1910.97 1284.7h1461.75v1322.24H1910.97Zm0 0"></path></clipPath><clipPath id="h"><path d="M98 157h1364.72v1101H98Zm0 0"></path></clipPath><clipPath id="i"><path d="M151 210h1311.72v994H151Zm0 0"></path></clipPath><clipPath id="g"><path d="M0 0h1463v1323H0z"></path></clipPath></defs><g clip-path="url(#a)" transform="translate(11 310)"><path d="M884.77 2081.04c0 46.19-8.11 93.28-24.34 141.3-16.16 47.8-40.02 93.87-71.58 138.18-32.32 45.39-77.13 82.4-134.44 111.06-57.15 28.58-121.6 42.86-193.32 42.86-73.97 0-139.72-12.52-197.25-37.57-58.09-25.28-103.05-58.33-134.88-99.16-31.1-39.9-54.14-81.27-69.1-124.09-14.97-42.89-22.46-85.52-22.46-127.88v-188.52h266.26v182.69c0 44.76 14.05 79.79 42.16 105.08 28.7 25.83 62.58 38.74 101.66 38.74 50.79 0 91.07-18.62 120.87-55.87 30.85-38.56 46.27-94.44 46.27-167.63v-930.95h270.15Zm-38.87 0v-952.32h19.44v19.43H634.06v-19.43h19.44v911.5c0 82.3-18.27 146.26-54.8 191.92-37.57 46.98-87.98 70.46-151.22 70.46-49.02 0-91.58-16.24-127.67-48.72-36.68-33.01-55.02-77.67-55.02-133.97v-163.25h19.44v19.43H56.83v-19.43h19.44v169.08c0 37.97 6.76 76.33 20.3 115.06 13.54 38.8 34.56 76.47 63.05 113.02 27.77 35.62 67.68 64.76 119.73 87.41 52.6 22.9 113.17 34.34 181.74 34.34 65.6 0 124.26-12.92 175.94-38.76 51.53-25.76 91.58-58.7 120.16-98.84 29.34-41.2 51.48-83.9 66.42-128.08 14.86-43.98 22.3-86.93 22.3-128.85Zm0 0"></path><path d="M865.33 2081.04c0 44.05-7.78 89.08-23.33 135.08-15.54 46-38.54 90.38-68.98 133.14-30.45 42.75-72.88 77.73-127.3 104.93-54.42 27.22-115.96 40.82-184.64 40.82-71.26 0-134.43-11.99-189.5-35.96-55.06-23.96-97.5-55.06-127.3-93.28-29.79-38.22-51.82-77.75-66.07-118.56-14.25-40.81-21.38-81.3-21.38-121.47v-169.08h227.4v163.25c0 50.53 16.18 90.38 48.57 119.53 32.4 29.15 70.63 43.72 114.69 43.72 57 0 102.34-21.05 136.03-63.15 33.7-42.12 50.55-102.04 50.55-179.78v-911.5h231.26Zm0 0"></path></g><g clip-path="url(#b)" transform="translate(854 504)"><path d="M587.28 2018.5c-105.84 0-202.04-24.24-288.59-72.7-87.43-48.97-155.9-118.43-205.4-208.37-48.95-88.93-73.42-191.18-73.42-306.78 0-114.6 25.2-216.45 75.62-305.54 50.84-89.83 120.29-158.86 208.34-207.09 87.04-47.66 184-71.5 290.88-71.5 106.87 0 203.84 23.84 290.87 71.5 88 48.19 157.41 116.85 208.25 206 50.48 88.5 75.72 190.72 75.72 306.63 0 116.1-25.95 218.77-77.83 308.01-52.07 89.57-122.65 158.7-211.74 207.42-88.27 48.28-185.84 72.42-292.7 72.42Zm0-120.74c86.3 0 164.55-19.2 234.77-57.6 69.4-37.95 124.5-92.01 165.3-162.18 40.98-70.48 61.47-152.93 61.47-247.33 0-94.58-19.96-176.85-59.86-246.83-39.56-69.36-93.34-122.66-161.36-159.9-68.98-37.78-146.6-56.66-232.89-56.66-86.29 0-163.91 18.88-232.89 56.65-67.95 37.22-121.7 90.77-161.26 160.66-39.97 70.64-59.96 152.67-59.96 246.08 0 94.9 19.48 177.76 58.45 248.56 38.41 69.79 91.28 123.53 158.63 161.25 68.23 38.2 144.76 57.3 229.6 57.3Zm0-148.58c50.59 0 98.05-11.86 142.4-35.58 43.1-23.05 78.18-58.07 105.25-105.06 27.44-47.63 41.16-106.93 41.16-177.89 0-71.13-13.5-130.57-40.48-178.31-26.45-46.8-60.53-81.37-102.25-103.72-43.1-23.09-89.94-34.64-140.5-34.64-51.71 0-98.77 11.5-141.18 34.5-40.9 22.17-73.99 56.5-99.24 102.98-26.07 47.97-39.11 107.7-39.11 179.2 0 72.9 12.8 133.4 38.42 181.5 24.7 46.36 57.17 80.59 97.41 102.67 41.73 22.9 87.76 34.35 138.12 34.35Zm0 120.73c-70.99 0-136.39-16.41-196.2-49.24-61.28-33.63-109.91-84.22-145.89-151.76-35.06-65.83-52.59-145.25-52.59-238.26 0-91.95 17.92-170.9 53.76-236.84 36.65-67.44 85.9-117.92 147.78-151.47 60.36-32.72 126.6-49.09 198.71-49.09 70.77 0 136.61 16.32 197.52 48.95 62.3 33.37 112.41 83.62 150.34 150.73 37.4 66.17 56.1 145.42 56.1 237.72 0 92.49-19.08 171.87-57.27 238.15-38.56 66.93-89.53 117.35-152.92 151.25-62.13 33.24-128.58 49.86-199.34 49.86Zm0 0"></path><path d="M587.28 1958.13c-95.35 0-181.71-21.66-259.1-65-77.38-43.34-138.06-104.94-182.01-184.81-43.96-79.86-65.94-172.42-65.94-277.67 0-104.01 22.6-195.95 67.8-275.82 45.2-79.86 106.8-141.14 184.8-183.85 78-42.72 165.3-64.08 261.88-64.08 96.57 0 183.87 21.36 261.88 64.08 78 42.7 139.6 103.68 184.8 182.93 45.2 79.25 67.8 171.5 67.8 276.74 0 105.25-23.23 197.8-69.66 277.67-46.43 79.87-109.27 141.47-188.52 184.81-79.24 43.34-167.15 65-263.73 65Zm0-148.6c60.67 0 117.63-14.23 170.87-42.71 53.24-28.48 96.27-71.2 129.08-128.14 32.81-56.96 49.22-126.3 49.22-208.03 0-81.72-16.1-151.06-48.3-208.02-32.19-56.96-74.29-99.36-126.3-127.22-52-27.86-108.33-41.8-169-41.8-61.91 0-118.57 13.94-169.95 41.8-51.39 27.86-92.56 70.26-123.51 127.22-30.95 56.96-46.43 126.3-46.43 208.02 0 82.96 15.17 152.92 45.5 209.87 30.35 56.96 70.9 99.37 121.66 127.24 50.77 27.85 106.49 41.78 167.16 41.78Zm0 0"></path></g><g clip-path="url(#c)" transform="translate(1662)"><path d="M100 801.85h265.17v1211.8H100Zm71.28 71.29v1069.23h122.6V873.14Zm0 0"></path><path d="M135.64 1978V837.5h193.9V1978Zm0 0"></path></g><g clip-path="url(#d)"><path d="M3192.55 1441.3c84.79 0 160.75 17.79 227.9 53.38 68.76 36.44 122.9 90.78 162.43 163.03 38.78 70.87 58.17 155.94 58.17 255.22v628.24h-266.96v-605.1c0-83.3-19.26-145.61-57.77-186.98-37.5-40.27-89.43-60.4-155.8-60.4-68.66 0-122.61 21.26-161.88 63.8-40.39 43.75-60.58 109.7-60.58 197.81v590.87h-266.97v-605.1c0-83.3-19.25-145.61-57.76-186.98-37.5-40.27-89.43-60.4-155.8-60.4-68.66 0-122.62 21.26-161.88 63.8-40.39 43.75-60.58 109.7-60.58 197.81v590.87h-268.75V1459.1h268.75v194h-53.4l-45.22-28.4c37.3-59.4 87.35-104.96 150.16-136.71 61.56-31.12 129.21-46.68 202.95-46.68 91.52 0 172.88 20.82 244.09 62.48 72.94 42.66 127.15 104.93 162.63 186.81l-49 21.23-49.62-19.68c31.7-79.97 84.14-142.04 157.29-186.2 71.37-43.1 150.57-64.64 237.6-64.64Zm0 106.79c-67.2 0-128 16.42-182.4 49.26-52.62 31.77-90.36 76.49-113.23 134.15l-47.45 119.65-51.17-118.1c-26.22-60.5-65.74-106.2-118.57-137.1-54.55-31.9-117.94-47.86-190.17-47.86-56.77 0-108.36 11.73-154.77 35.19-45.16 22.83-81.13 55.56-107.9 98.2l-98.61 157.05V1512.5h53.39v53.4H2019.7v-53.4h53.4v975.3h-53.4v-53.4h161.96v53.4h-53.4v-537.5c0-115.95 29.64-206.04 88.92-270.25 60.4-65.44 140.51-98.16 240.34-98.16 97.36 0 175.34 31.48 233.95 94.43 57.6 61.87 86.4 148.45 86.4 259.75v551.71h-53.4v-53.4h160.18v53.4h-53.39V1950.3c0-115.95 29.64-206.04 88.91-270.25 60.4-65.44 140.52-98.16 240.34-98.16 97.36 0 175.35 31.48 233.96 94.43 57.6 61.87 86.4 148.45 86.4 259.75v551.71h-53.4v-53.4h160.17v53.4h-53.39v-574.85c0-81.07-15.02-149.06-45.06-203.96-29.28-53.51-68.87-93.5-118.76-119.94-51.5-27.3-110.8-40.94-177.89-40.94Zm0 0"></path></g><g clip-path="url(#e)"><path d="M3192.56 1494.68c75.94 0 143.57 15.73 202.9 47.18 59.31 31.43 106.17 78.6 140.58 141.48 34.42 62.88 51.63 139.41 51.63 229.59v574.85h-160.18v-551.72c0-97.29-24.03-171.74-72.08-223.35-48.06-51.61-113.02-77.42-194.87-77.42-84.25 0-151.3 27-201.13 80.98-49.83 53.99-74.75 132-74.75 234.03v537.48H2724.5v-551.72c0-97.29-24.03-171.74-72.09-223.35-48.04-51.61-113-77.42-194.87-77.42-84.25 0-151.28 27-201.11 80.98-49.83 53.99-74.74 132-74.74 234.03v537.48h-161.96v-975.3h161.96v140.6c32.03-51.01 75.03-90.17 129.02-117.46 53.99-27.29 113.61-40.94 178.87-40.94 81.86 0 154.23 18.4 217.12 55.18 62.88 36.78 109.75 90.77 140.6 161.96 27.3-68.82 72.38-122.2 135.26-160.18 62.89-37.97 132.89-56.96 210-56.96Zm0 0"></path></g><g clip-path="url(#f)"><g clip-path="url(#g)" transform="translate(1910 1284)"><g clip-path="url(#h)"><path d="M546.95 157.3c-84.79 0-160.75 17.79-227.9 53.38-68.75 36.44-122.9 90.78-162.43 163.03-38.78 70.87-58.17 155.94-58.17 255.22v628.24h266.97v-605.1c0-83.3 19.25-145.61 57.76-186.98 37.5-40.27 89.43-60.4 155.8-60.4 68.66 0 122.61 21.26 161.88 63.8 40.39 43.75 60.59 109.7 60.59 197.81v590.87h266.96v-605.1c0-83.3 19.25-145.61 57.76-186.98 37.5-40.27 89.43-60.4 155.8-60.4 68.66 0 122.62 21.26 161.88 63.8 40.39 43.75 60.59 109.7 60.59 197.81v590.87h268.74V175.1h-268.74v194h53.4l45.21-28.4c-37.3-59.4-87.35-104.96-150.16-136.71-61.56-31.12-129.2-46.68-202.95-46.68-91.52 0-172.88 20.82-244.09 62.48-72.94 42.66-127.15 104.93-162.63 186.81l49 21.23 49.62-19.68c-31.7-79.97-84.14-142.04-157.29-186.2-71.37-43.1-150.57-64.64-237.6-64.64Zm0 106.79c67.2 0 128 16.42 182.4 49.26 52.62 31.77 90.36 76.49 113.23 134.15l47.45 119.65 51.17-118.1c26.22-60.5 65.74-106.2 118.57-137.1 54.56-31.9 117.95-47.86 190.17-47.86 56.77 0 108.36 11.73 154.77 35.19 45.16 22.83 81.13 55.56 107.9 98.2l98.61 157.05V228.5h-53.39v53.4h161.96v-53.4h-53.4v975.3h53.4v-53.4h-161.96v53.4h53.4V666.3c0-115.95-29.64-206.04-88.92-270.25-60.4-65.44-140.5-98.16-240.34-98.16-97.36 0-175.35 31.48-233.95 94.43-57.6 61.87-86.4 148.45-86.4 259.75v551.71h53.4v-53.4H854.84v53.4h53.4V666.3c0-115.95-29.64-206.04-88.92-270.25-60.4-65.44-140.51-98.16-240.34-98.16-97.36 0-175.34 31.48-233.96 94.43-57.6 61.87-86.4 148.45-86.4 259.75v551.71h53.4v-53.4H151.85v53.4h53.4V628.93c0-81.07 15-149.06 45.05-203.96 29.28-53.51 68.87-93.5 118.76-119.94 51.5-27.3 110.8-40.94 177.89-40.94Zm0 0"></path></g><g clip-path="url(#i)"><path d="M546.94 210.68c-75.94 0-143.57 15.73-202.89 47.18-59.32 31.43-106.18 78.6-140.59 141.48-34.42 62.88-51.63 139.41-51.63 229.59v574.85h160.18V652.06c0-97.29 24.03-171.74 72.08-223.35 48.06-51.61 113.02-77.42 194.88-77.42 84.24 0 151.29 27 201.12 80.98 49.83 53.99 74.75 132 74.75 234.03v537.48H1015V652.06c0-97.29 24.03-171.74 72.09-223.35 48.04-51.61 113-77.42 194.87-77.42 84.25 0 151.28 27 201.11 80.98 49.83 53.99 74.74 132 74.74 234.03v537.48h161.96v-975.3h-161.96v140.6c-32.03-51.01-75.03-90.17-129.02-117.46-53.98-27.29-113.6-40.94-178.87-40.94-81.86 0-154.23 18.4-217.11 55.18-62.89 36.78-109.76 90.77-140.61 161.96-27.3-68.82-72.38-122.2-135.26-160.18-62.88-37.97-132.89-56.96-210-56.96Zm0 0"></path></g></g></g><path d="M2112.04 2756.92a31.64 31.64 0 0 1-14.57 6.58c-5.4.94-12.2 1.4-20.41 1.4h-60.92v-151.2h60.92c5.04 0 8.79.08 11.23.22 2.45.15 5.7.73 9.72 1.73a30.7 30.7 0 0 1 10.36 4.54c10.38 7.2 15.56 17.57 15.56 31.1a34.3 34.3 0 0 1-7.25 21.38c-4.82 6.34-11.4 10.73-19.75 13.17l-.43 1.96c9.5 2.15 17.13 6.76 22.89 13.82 5.76 7.06 8.64 15.26 8.64 24.63 0 11.8-5.33 22.03-15.99 30.67Zm-24.18-120.53a16.6 16.6 0 0 0-6.7-2.38 40.24 40.24 0 0 0-7.57-.54c-2.3.07-4.68.1-7.12.1h-24.63v43.63h27.22c9.64 0 16.41-1.58 20.31-4.75 5.18-4.31 7.77-10.36 7.77-18.14 0-8.2-3.1-14.18-9.28-17.92Zm2.15 63.94c-3.6-2.45-9.93-3.68-19-3.68h-29.17v47.3h27.66c10.08 0 17.2-1.44 21.37-4.31 6.2-4.18 9.3-10.88 9.3-20.1 0-3.88-.94-7.59-2.81-11.12a20.46 20.46 0 0 0-7.35-8.1Zm147.1 64.57-9.08-32.82h-50.53l-9.3 32.82h-25.04l44.28-151.2h34.77l42.98 151.2Zm-33.9-127.87-20.1 74.31h39.31Zm168.47 127.87-55.51-113.4v113.4h-25.49v-151.2h30.02l48.39 100.88V2613.7h25.48v151.2Zm148.18 0v-16.2c-2.6 6.92-6.78 11.56-12.53 13.94-5.77 2.37-13.18 3.56-22.25 3.56-19.15 0-34.84-7.38-47.08-22.14-12.24-14.76-18.36-32.72-18.36-53.89 0-14.4 2.44-27.44 7.34-39.1a65.15 65.15 0 0 1 23.22-28.62c10.58-7.41 23.29-11.12 38.13-11.12 14.25 0 26.16 4.07 35.73 12.2 9.58 8.14 15.67 19.48 18.27 34.02l-24.2 3.67c-1.3-8.2-4.72-15.1-10.27-20.72-5.55-5.63-12.35-8.44-20.4-8.44a30.23 30.23 0 0 0-18.37 6.05 43.41 43.41 0 0 0-12.95 15.23 88.21 88.21 0 0 0-7.24 19 76.32 76.32 0 0 0-2.48 18.69c0 7.2 1.5 14.8 4.53 22.8 3.02 7.99 7.95 15.18 14.8 21.59 6.84 6.4 14.65 9.6 23.44 9.6 8.78 0 15.58-3.08 20.4-9.27 4.82-6.2 7.24-15.27 7.24-27.22h-27v-20.73h51.62v77.1Zm131.54 0-29.8-70.42-26.36 42.35v28.07h-24.85v-151.2h24.85v82.74l50.98-82.74h27.42l-33.47 56.6 40.4 94.6Zm105.84.65c-13.68 0-25.35-3.85-35-11.55a64.95 64.95 0 0 1-20.84-29.05c-4.25-11.66-6.37-24.63-6.37-38.89 0-9.5 1.3-18.68 3.89-27.53a81.56 81.56 0 0 1 11.56-24.19 56.09 56.09 0 0 1 20.19-17.5c8.35-4.4 17.86-6.6 28.51-6.6 9.22 0 17.35 1.56 24.4 4.65 7.07 3.1 12.68 7.09 16.85 11.98 4.18 4.9 7.6 10.84 10.27 17.83a93.8 93.8 0 0 1 5.4 20.74c.94 6.84 1.41 14.15 1.41 21.92 0 10.23-1.2 19.92-3.58 29.06a85.6 85.6 0 0 1-10.69 24.83 52.26 52.26 0 0 1-19.01 17.72c-7.92 4.38-16.92 6.58-26.99 6.58Zm1.08-133.7c-7.78 0-14.48 3.05-20.1 9.18a52.1 52.1 0 0 0-11.87 21.39 92.65 92.65 0 0 0-3.45 25.38c0 6.04.64 12.08 1.94 18.14a83.3 83.3 0 0 0 5.94 17.71 36.08 36.08 0 0 0 11.23 14.05 26.94 26.94 0 0 0 16.53 5.4c7.63 0 14.03-2.89 19.22-8.65a48.62 48.62 0 0 0 10.9-20.62c2.1-8 3.15-16.68 3.15-26.03 0-7.2-.51-13.86-1.52-19.97a83.3 83.3 0 0 0-4.97-17.72c-2.3-5.7-5.76-10.17-10.37-13.4-4.6-3.25-10.15-4.87-16.63-4.87Zm168.26 133.05-29.8-70.42-26.36 42.35v28.07h-24.84v-151.2h24.84v82.74l50.98-82.74h27.43l-33.47 56.6 40.39 94.6Zm196.14-154.21c18.71 0 33.4 4.53 44.06 13.6 10.65 9.07 15.98 19.15 15.98 30.24 0 7.2-2.2 13.82-6.6 19.87-4.39 6.05-9.17 10.72-14.35 14.04-13.82 9.07-22.68 14.7-26.58 16.86-15.26 8.63-27.35 18.13-36.28 28.5-2.45 2.59-3.67 5.9-3.67 9.93h86.6v21.17h-119.21c0-10.36.93-19.21 2.8-26.56 1.87-7.34 5.69-14.04 11.45-20.1 4.6-5.03 9.82-9.71 15.66-14.02a146.21 146.21 0 0 1 15.12-10.05 589.13 589.13 0 0 1 18.25-9.62c20.6-10.37 30.9-20.8 30.9-31.32 0-6.62-3.8-12.16-11.35-16.62-7.57-4.47-16.03-6.7-25.38-6.7-9.65 0-17.42 2.4-23.33 7.23-5.9 4.82-8.86 10.76-8.86 17.83 0 4.03 1.3 8.63 3.9 13.8l-25.07 9.73a37.1 37.1 0 0 1-6.47-21.38c0-13.67 5.94-24.83 17.82-33.47 11.87-8.64 26.74-12.96 44.6-12.96Zm208.42 77.96c0 50.84-21.1 76.25-63.28 76.25-11.08 0-20.76-2.08-29.05-6.26-8.28-4.18-14.76-9.94-19.45-17.28a82.5 82.5 0 0 1-10.36-24.08 113.45 113.45 0 0 1-3.34-28.19c0-9.22 1.11-18.07 3.34-26.56a88.26 88.26 0 0 1 10.25-23.98c4.62-7.5 11.1-13.5 19.45-18.04 8.36-4.54 18.08-6.8 29.16-6.8 11.95 0 22.24 2.2 30.88 6.59 8.64 4.38 15.2 10.32 19.65 17.8a85.23 85.23 0 0 1 9.72 23.66 113.33 113.33 0 0 1 3.03 26.9Zm-62.2-57.45c-6.77 0-12.64 1.8-17.61 5.4a34.17 34.17 0 0 0-11.33 14.26 86.39 86.39 0 0 0-5.73 18.36 105.04 105.04 0 0 0-1.83 19.87c0 6.63.53 13.1 1.6 19.44a96.54 96.54 0 0 0 5.3 18.9 34.07 34.07 0 0 0 11.24 15.13c5.04 3.81 11.02 5.72 17.94 5.72 5.75 0 10.78-1.26 15.1-3.78a30.01 30.01 0 0 0 10.27-9.61 53.1 53.1 0 0 0 6.16-13.94 86.25 86.25 0 0 0 3.12-15.55c.51-4.96.77-10.26.77-15.89 0-38.87-11.67-58.3-35-58.3Zm212.76 57.45c0 50.84-21.1 76.25-63.29 76.25-11.08 0-20.76-2.08-29.04-6.26-8.29-4.18-14.77-9.94-19.46-17.28a82.5 82.5 0 0 1-10.36-24.08 113.45 113.45 0 0 1-3.34-28.19c0-9.22 1.11-18.07 3.34-26.56a88.26 88.26 0 0 1 10.25-23.98c4.62-7.5 11.1-13.5 19.46-18.04 8.35-4.54 18.07-6.8 29.15-6.8 11.95 0 22.24 2.2 30.88 6.59 8.64 4.38 15.2 10.32 19.65 17.8a85.23 85.23 0 0 1 9.72 23.66 113.33 113.33 0 0 1 3.03 26.9Zm-62.2-57.45c-6.78 0-12.65 1.8-17.62 5.4a34.17 34.17 0 0 0-11.33 14.26 86.39 86.39 0 0 0-5.73 18.36 105.04 105.04 0 0 0-1.83 19.87c0 6.63.54 13.1 1.61 19.44a96.54 96.54 0 0 0 5.3 18.9 34.07 34.07 0 0 0 11.23 15.13c5.04 3.81 11.02 5.72 17.94 5.72 5.75 0 10.78-1.26 15.1-3.78a30.01 30.01 0 0 0 10.27-9.61 53.1 53.1 0 0 0 6.16-13.94 86.25 86.25 0 0 0 3.13-15.55c.5-4.96.76-10.26.76-15.89 0-38.87-11.67-58.3-35-58.3Zm158.96 136.94c-43.91 0-65.87-24.77-65.87-74.3 0-12.96 1.47-24.47 4.42-34.56 2.96-10.08 6.7-18.04 11.24-23.86a59.47 59.47 0 0 1 15.98-14.36c6.13-3.75 11.96-6.27 17.5-7.56a74.88 74.88 0 0 1 17.17-1.95c28.95 0 46.88 11.52 53.78 34.56h-24.62c-5.47-11.23-15.7-16.85-30.67-16.85-3.32 0-6.48.4-9.5 1.2-3.03.78-6.23 2.37-9.61 4.74a33.21 33.21 0 0 0-8.75 9.19c-2.45 3.74-4.5 8.89-6.16 15.44-1.66 6.55-2.48 14.07-2.48 22.56 6.05-5.32 12.02-9.38 17.92-12.19 5.9-2.81 13.25-4.22 22.03-4.22 17 0 30.32 4.58 39.97 13.72 9.64 9.14 14.47 21.4 14.47 36.81 0 14.84-4.83 27.15-14.47 36.94-9.65 9.8-23.76 14.69-42.35 14.69Zm-2.37-85.31c-10.22 0-18.43 3.06-24.63 9.18-6.18 6.12-9.28 14.07-9.28 23.86 0 10.09 2.77 18.22 8.32 24.4 5.53 6.2 13.85 9.3 24.93 9.3 11.1 0 19.52-3.03 25.28-9.07 5.76-6.05 8.65-13.83 8.65-23.33 0-11.1-3.25-19.59-9.72-25.48-6.48-5.91-14.33-8.86-23.55-8.86Zm0 0"></path></svg></svg><style>@media (prefers-color-scheme: light) { :root { filter: none; } }
@media (prefers-color-scheme: dark) { :root { filter: none; } }
</style></svg>