<svg xmlns="http://www.w3.org/2000/svg" xmlns:xlink="http://www.w3.org/1999/xlink" width="5000" zoomAndPan="magnify" viewBox="0 0 3750 3749.999967" height="5000" preserveAspectRatio="xMidYMid meet" version="1.0"><defs><g/><clipPath id="582493f177"><rect x="0" width="938" y="0" height="3440"/></clipPath><clipPath id="d29cb3d2d1"><rect x="0" width="1195" y="0" height="2599"/></clipPath><clipPath id="83e76e5053"><rect x="0" width="481" y="0" height="2947"/></clipPath><clipPath id="4bef708e6d"><path d="M 2276.414062 1441 L 3642 1441 L 3642 2542 L 2276.414062 2542 Z M 2276.414062 1441 " clip-rule="nonzero"/></clipPath><clipPath id="c1fbbccb77"><path d="M 2276.414062 1494 L 3588 1494 L 3588 2488 L 2276.414062 2488 Z M 2276.414062 1494 " clip-rule="nonzero"/></clipPath><clipPath id="8b1a93e1f1"><path d="M 1910.972656 1284.691406 L 3372.722656 1284.691406 L 3372.722656 2606.941406 L 1910.972656 2606.941406 Z M 1910.972656 1284.691406 " clip-rule="nonzero"/></clipPath><clipPath id="563ce50ebd"><path d="M 98 157 L 1462.722656 157 L 1462.722656 1258 L 98 1258 Z M 98 157 " clip-rule="nonzero"/></clipPath><clipPath id="8edfd14bda"><path d="M 151 210 L 1462.722656 210 L 1462.722656 1204 L 151 1204 Z M 151 210 " clip-rule="nonzero"/></clipPath><clipPath id="3ea55b58d8"><rect x="0" width="1463" y="0" height="1323"/></clipPath><clipPath id="f0063096c4"><rect x="0" width="1638" y="0" height="585"/></clipPath></defs><g transform="matrix(1, 0, 0, 1, 11, 310)"><g clip-path="url(#582493f177)"><g fill="#000000" fill-opacity="1"><g transform="translate(0.472311, 2489.178833)"><g><path d="M 884.300781 -408.140625 C 884.300781 -361.953125 876.1875 -314.855469 859.957031 -266.839844 C 843.796875 -219.035156 819.9375 -172.972656 788.378906 -128.660156 C 756.058594 -83.273438 711.246094 -46.253906 653.941406 -17.597656 C 596.785156 10.976562 532.34375 25.265625 460.613281 25.265625 C 386.652344 25.265625 320.902344 12.742188 263.363281 -12.304688 C 205.277344 -37.589844 160.320312 -70.640625 128.492188 -111.464844 C 97.378906 -151.367188 74.347656 -192.734375 59.390625 -235.558594 C 44.414062 -278.449219 36.925781 -321.074219 36.925781 -363.4375 L 36.925781 -551.960938 L 303.191406 -551.960938 L 303.191406 -369.269531 C 303.191406 -324.507812 317.242188 -289.480469 345.34375 -264.1875 C 374.039062 -238.363281 407.929688 -225.449219 447.007812 -225.449219 C 497.792969 -225.449219 538.082031 -244.070312 567.878906 -281.320312 C 598.726562 -319.878906 614.152344 -375.757812 614.152344 -448.953125 L 614.152344 -1379.898438 L 884.300781 -1379.898438 Z M 845.429688 -408.140625 L 845.429688 -1360.460938 L 864.867188 -1360.460938 L 864.867188 -1341.027344 L 633.585938 -1341.027344 L 633.585938 -1360.460938 L 653.023438 -1360.460938 L 653.023438 -448.953125 C 653.023438 -366.667969 634.757812 -302.695312 598.230469 -257.035156 C 560.65625 -210.0625 510.246094 -186.578125 447.007812 -186.578125 C 397.984375 -186.578125 355.425781 -202.816406 319.339844 -235.296875 C 282.660156 -268.308594 264.316406 -312.964844 264.316406 -369.269531 L 264.316406 -532.523438 L 283.753906 -532.523438 L 283.753906 -513.089844 L 56.363281 -513.089844 L 56.363281 -532.523438 L 75.796875 -532.523438 L 75.796875 -363.4375 C 75.796875 -325.46875 82.5625 -287.113281 96.089844 -248.375 C 109.640625 -209.574219 130.660156 -171.90625 159.148438 -135.363281 C 186.921875 -99.738281 226.832031 -70.601562 278.878906 -47.945312 C 331.472656 -25.050781 392.050781 -13.605469 460.613281 -13.605469 C 526.226562 -13.605469 584.875 -26.527344 636.554688 -52.367188 C 688.085938 -78.132812 728.140625 -111.078125 756.714844 -151.207031 C 786.054688 -192.410156 808.195312 -235.101562 823.132812 -279.289062 C 837.996094 -323.265625 845.429688 -366.214844 845.429688 -408.140625 Z M 845.429688 -408.140625 "/></g></g></g><g fill="#000000" fill-opacity="1"><g transform="translate(0.472311, 2489.178833)"><g><path d="M 864.859375 -408.140625 C 864.859375 -364.085938 857.082031 -319.0625 841.53125 -273.0625 C 825.988281 -227.0625 802.992188 -182.679688 772.546875 -139.921875 C 742.097656 -97.171875 699.664062 -62.191406 645.25 -34.984375 C 590.832031 -7.773438 529.285156 5.828125 460.609375 5.828125 C 389.347656 5.828125 326.179688 -6.15625 271.109375 -30.125 C 216.046875 -54.09375 173.613281 -85.1875 143.8125 -123.40625 C 114.019531 -161.632812 91.992188 -201.15625 77.734375 -241.96875 C 63.484375 -282.78125 56.359375 -323.269531 56.359375 -363.4375 L 56.359375 -532.515625 L 283.75 -532.515625 L 283.75 -369.265625 C 283.75 -318.734375 299.941406 -278.890625 332.328125 -249.734375 C 364.722656 -220.585938 402.953125 -206.015625 447.015625 -206.015625 C 504.015625 -206.015625 549.359375 -227.066406 583.046875 -269.171875 C 616.742188 -311.285156 633.59375 -371.210938 633.59375 -448.953125 L 633.59375 -1360.453125 L 864.859375 -1360.453125 Z M 864.859375 -408.140625 "/></g></g></g></g></g><g transform="matrix(1, 0, 0, 1, 854, 504)"><g clip-path="url(#d29cb3d2d1)"><g fill="#000000" fill-opacity="1"><g transform="translate(0.370091, 1941.413011)"><g><path d="M 586.910156 77.082031 C 481.066406 77.082031 384.871094 52.847656 298.320312 4.378906 C 210.890625 -44.582031 142.421875 -114.039062 92.914062 -203.984375 C 43.972656 -292.910156 19.5 -395.167969 19.5 -510.761719 C 19.5 -625.367188 44.707031 -727.214844 95.121094 -816.300781 C 145.957031 -906.136719 215.40625 -975.167969 303.464844 -1023.390625 C 390.503906 -1071.054688 487.460938 -1094.886719 594.339844 -1094.886719 C 701.214844 -1094.886719 798.175781 -1071.054688 885.214844 -1023.390625 C 973.207031 -975.203125 1042.621094 -906.539062 1093.457031 -817.402344 C 1143.9375 -728.890625 1169.179688 -626.675781 1169.179688 -510.761719 C 1169.179688 -394.664062 1143.234375 -291.996094 1091.351562 -202.75 C 1039.277344 -113.1875 968.699219 -44.046875 879.609375 4.671875 C 791.34375 52.945312 693.773438 77.082031 586.910156 77.082031 Z M 586.910156 -43.648438 C 673.203125 -43.648438 751.460938 -62.851562 821.683594 -101.253906 C 891.085938 -139.207031 946.183594 -193.265625 986.980469 -263.433594 C 1027.957031 -333.917969 1048.449219 -416.359375 1048.449219 -510.761719 C 1048.449219 -605.339844 1028.492188 -687.617188 988.585938 -757.59375 C 949.03125 -826.949219 895.246094 -880.25 827.226562 -917.5 C 758.25 -955.269531 680.621094 -974.15625 594.339844 -974.15625 C 508.054688 -974.15625 430.425781 -955.269531 361.453125 -917.5 C 293.496094 -880.285156 239.742188 -826.730469 200.191406 -756.839844 C 160.21875 -686.199219 140.230469 -604.171875 140.230469 -510.761719 C 140.230469 -415.855469 159.714844 -333 198.683594 -262.199219 C 237.089844 -192.417969 289.964844 -138.671875 357.308594 -100.957031 C 425.535156 -62.753906 502.070312 -43.648438 586.910156 -43.648438 Z M 586.910156 -192.234375 C 637.496094 -192.234375 684.960938 -204.09375 729.3125 -227.816406 C 772.40625 -250.867188 807.492188 -285.886719 834.558594 -332.875 C 862 -380.503906 875.71875 -439.800781 875.71875 -510.761719 C 875.71875 -581.894531 862.226562 -641.335938 835.242188 -689.074219 C 808.792969 -735.871094 774.707031 -770.445312 732.992188 -792.792969 C 689.890625 -815.882812 643.054688 -827.429688 592.480469 -827.429688 C 540.777344 -827.429688 493.722656 -815.929688 451.308594 -792.9375 C 410.40625 -770.761719 377.324219 -736.433594 352.066406 -689.953125 C 325.996094 -641.984375 312.957031 -582.253906 312.957031 -510.761719 C 312.957031 -437.847656 325.765625 -377.347656 351.378906 -329.261719 C 376.074219 -282.894531 408.546875 -248.664062 448.792969 -226.578125 C 490.515625 -203.683594 536.554688 -192.234375 586.910156 -192.234375 Z M 586.910156 -71.503906 C 515.921875 -71.503906 450.519531 -87.914062 390.710938 -120.738281 C 329.425781 -154.371094 280.796875 -204.960938 244.820312 -272.507812 C 209.757812 -338.332031 192.230469 -417.75 192.230469 -510.761719 C 192.230469 -602.710938 210.148438 -681.660156 245.988281 -747.605469 C 282.636719 -815.039062 331.898438 -865.527344 393.765625 -899.070312 C 454.125 -931.796875 520.363281 -948.160156 592.480469 -948.160156 C 663.253906 -948.160156 729.09375 -931.84375 790.003906 -899.214844 C 852.292969 -865.84375 902.410156 -815.597656 940.34375 -748.480469 C 977.746094 -682.308594 996.449219 -603.066406 996.449219 -510.761719 C 996.449219 -418.277344 977.355469 -338.890625 939.171875 -272.609375 C 900.613281 -205.679688 849.640625 -155.265625 786.253906 -121.359375 C 724.117188 -88.121094 657.667969 -71.503906 586.910156 -71.503906 Z M 586.910156 -71.503906 "/></g></g></g><g fill="#000000" fill-opacity="1"><g transform="translate(0.370091, 1941.413011)"><g><path d="M 586.90625 16.71875 C 491.5625 16.71875 405.195312 -4.945312 327.8125 -48.28125 C 250.425781 -91.625 189.753906 -153.226562 145.796875 -233.09375 C 101.835938 -312.957031 79.859375 -405.515625 79.859375 -510.765625 C 79.859375 -614.773438 102.457031 -706.710938 147.65625 -786.578125 C 192.851562 -866.441406 254.453125 -927.726562 332.453125 -970.4375 C 410.460938 -1013.15625 497.757812 -1034.515625 594.34375 -1034.515625 C 690.914062 -1034.515625 778.207031 -1013.15625 856.21875 -970.4375 C 934.226562 -927.726562 995.828125 -866.75 1041.015625 -787.5 C 1086.210938 -708.25 1108.8125 -616.003906 1108.8125 -510.765625 C 1108.8125 -405.515625 1085.59375 -312.957031 1039.15625 -233.09375 C 992.726562 -153.226562 929.890625 -91.625 850.640625 -48.28125 C 771.398438 -4.945312 683.488281 16.71875 586.90625 16.71875 Z M 586.90625 -131.875 C 647.582031 -131.875 704.539062 -146.113281 757.78125 -174.59375 C 811.019531 -203.070312 854.046875 -245.785156 886.859375 -302.734375 C 919.671875 -359.691406 936.078125 -429.035156 936.078125 -510.765625 C 936.078125 -592.484375 919.976562 -661.820312 887.78125 -718.78125 C 855.59375 -775.738281 813.492188 -818.144531 761.484375 -846 C 709.484375 -873.863281 653.148438 -887.796875 592.484375 -887.796875 C 530.566406 -887.796875 473.914062 -873.863281 422.53125 -846 C 371.144531 -818.144531 329.972656 -775.738281 299.015625 -718.78125 C 268.066406 -661.820312 252.59375 -592.484375 252.59375 -510.765625 C 252.59375 -427.804688 267.757812 -357.847656 298.09375 -300.890625 C 328.4375 -243.929688 368.988281 -201.519531 419.75 -173.65625 C 470.519531 -145.800781 526.238281 -131.875 586.90625 -131.875 Z M 586.90625 -131.875 "/></g></g></g></g></g><g transform="matrix(1, 0, 0, 1, 1662, 0.000000000000269639)"><g clip-path="url(#83e76e5053)"><g fill="#000000" fill-opacity="1"><g transform="translate(0.406808, 1978.008369)"><g><path d="M 99.589844 -1176.15625 L 364.761719 -1176.15625 L 364.761719 35.640625 L 99.589844 35.640625 Z M 170.875 -1104.871094 L 170.875 -35.640625 L 293.476562 -35.640625 L 293.476562 -1104.871094 Z M 170.875 -1104.871094 "/></g></g></g><g fill="#000000" fill-opacity="1"><g transform="translate(0.406808, 1978.008369)"><g><path d="M 135.234375 0 L 135.234375 -1140.515625 L 329.125 -1140.515625 L 329.125 0 Z M 135.234375 0 "/></g></g></g></g></g><g clip-path="url(#4bef708e6d)"><path fill="#000000" d="M 3192.554688 1441.296875 C 3277.339844 1441.296875 3353.304688 1459.089844 3420.449219 1494.675781 C 3489.207031 1531.117188 3543.347656 1585.464844 3582.882812 1657.710938 C 3621.660156 1728.582031 3641.046875 1813.652344 3641.046875 1912.925781 L 3641.046875 2541.171875 L 3374.085938 2541.171875 L 3374.085938 1936.066406 C 3374.085938 1852.777344 3354.832031 1790.457031 3316.320312 1749.089844 C 3278.828125 1708.820312 3226.890625 1688.683594 3160.523438 1688.683594 C 3091.863281 1688.683594 3037.90625 1709.949219 2998.644531 1752.484375 C 2958.253906 1796.242188 2938.058594 1862.183594 2938.058594 1950.300781 L 2938.058594 2541.171875 L 2671.09375 2541.171875 L 2671.09375 1936.066406 C 2671.09375 1852.777344 2651.839844 1790.457031 2613.332031 1749.089844 C 2575.835938 1708.820312 2523.898438 1688.683594 2457.53125 1688.683594 C 2388.875 1688.683594 2334.914062 1709.949219 2295.652344 1752.484375 C 2255.261719 1796.242188 2235.066406 1862.183594 2235.066406 1950.300781 L 2235.066406 2541.171875 L 1966.320312 2541.171875 L 1966.320312 1459.09375 L 2235.066406 1459.09375 L 2235.066406 1653.085938 L 2181.667969 1653.085938 L 2136.453125 1624.695312 C 2173.746094 1565.296875 2223.800781 1519.726562 2286.613281 1487.976562 C 2348.171875 1456.855469 2415.820312 1441.296875 2489.5625 1441.296875 C 2581.078125 1441.296875 2662.4375 1462.121094 2733.648438 1503.777344 C 2806.589844 1546.4375 2860.800781 1608.710938 2896.277344 1690.589844 L 2847.289062 1711.820312 L 2797.65625 1692.136719 C 2829.363281 1612.171875 2881.796875 1550.101562 2954.949219 1505.9375 C 3026.316406 1462.847656 3105.523438 1441.296875 3192.554688 1441.296875 Z M 3192.554688 1548.085938 C 3125.347656 1548.085938 3064.542969 1564.507812 3010.144531 1597.351562 C 2957.53125 1629.117188 2919.789062 1673.835938 2896.921875 1731.5 L 2849.472656 1851.148438 L 2798.296875 1733.046875 C 2772.082031 1672.550781 2732.558594 1626.851562 2679.734375 1595.953125 C 2625.175781 1564.042969 2561.785156 1548.085938 2489.5625 1548.085938 C 2432.792969 1548.085938 2381.199219 1559.816406 2334.789062 1583.277344 C 2289.628906 1606.105469 2253.664062 1638.839844 2226.886719 1681.480469 L 2128.277344 1838.53125 L 2128.277344 1512.492188 L 2181.667969 1512.492188 L 2181.667969 1565.882812 L 2019.714844 1565.882812 L 2019.714844 1512.492188 L 2073.109375 1512.492188 L 2073.109375 2487.78125 L 2019.714844 2487.78125 L 2019.714844 2434.386719 L 2181.667969 2434.386719 L 2181.667969 2487.78125 L 2128.277344 2487.78125 L 2128.277344 1950.300781 C 2128.277344 1834.347656 2157.914062 1744.261719 2217.1875 1680.050781 C 2277.585938 1614.613281 2357.703125 1581.894531 2457.53125 1581.894531 C 2554.890625 1581.894531 2632.875 1613.371094 2691.484375 1676.324219 C 2749.082031 1738.191406 2777.882812 1824.769531 2777.882812 1936.066406 L 2777.882812 2487.78125 L 2724.484375 2487.78125 L 2724.484375 2434.386719 L 2884.660156 2434.386719 L 2884.660156 2487.78125 L 2831.269531 2487.78125 L 2831.269531 1950.300781 C 2831.269531 1834.347656 2860.90625 1744.261719 2920.179688 1680.050781 C 2980.578125 1614.613281 3060.695312 1581.894531 3160.523438 1581.894531 C 3257.882812 1581.894531 3335.867188 1613.371094 3394.476562 1676.324219 C 3452.078125 1738.191406 3480.871094 1824.769531 3480.871094 1936.066406 L 3480.871094 2487.78125 L 3427.480469 2487.78125 L 3427.480469 2434.386719 L 3587.652344 2434.386719 L 3587.652344 2487.78125 L 3534.261719 2487.78125 L 3534.261719 1912.925781 C 3534.261719 1831.855469 3519.242188 1763.871094 3489.203125 1708.972656 C 3459.921875 1655.457031 3420.328125 1615.476562 3370.441406 1589.03125 C 3318.933594 1561.734375 3259.640625 1548.085938 3192.554688 1548.085938 Z M 3192.554688 1548.085938 " fill-opacity="1" fill-rule="nonzero"/></g><g clip-path="url(#c1fbbccb77)"><path fill="#000000" d="M 3192.558594 1494.683594 C 3268.5 1494.683594 3336.128906 1510.410156 3395.453125 1541.855469 C 3454.769531 1573.292969 3501.632812 1620.457031 3536.042969 1683.339844 C 3570.457031 1746.222656 3587.667969 1822.75 3587.667969 1912.925781 L 3587.667969 2487.78125 L 3427.492188 2487.78125 L 3427.492188 1936.058594 C 3427.492188 1838.769531 3403.460938 1764.316406 3355.40625 1712.707031 C 3307.347656 1661.097656 3242.390625 1635.292969 3160.535156 1635.292969 C 3076.285156 1635.292969 3009.242188 1662.285156 2959.40625 1716.269531 C 2909.578125 1770.257812 2884.664062 1848.265625 2884.664062 1950.296875 L 2884.664062 2487.78125 L 2724.488281 2487.78125 L 2724.488281 1936.058594 C 2724.488281 1838.769531 2700.457031 1764.316406 2652.402344 1712.707031 C 2604.359375 1661.097656 2539.398438 1635.292969 2457.53125 1635.292969 C 2373.28125 1635.292969 2306.246094 1662.285156 2256.417969 1716.269531 C 2206.589844 1770.257812 2181.675781 1848.265625 2181.675781 1950.296875 L 2181.675781 2487.78125 L 2019.71875 2487.78125 L 2019.71875 1512.488281 L 2181.675781 1512.488281 L 2181.675781 1653.078125 C 2213.707031 1602.066406 2256.714844 1562.910156 2310.703125 1535.621094 C 2364.6875 1508.332031 2424.3125 1494.683594 2489.570312 1494.683594 C 2571.429688 1494.683594 2643.800781 1513.074219 2706.6875 1549.859375 C 2769.570312 1586.640625 2816.4375 1640.628906 2847.292969 1711.816406 C 2874.582031 1643.003906 2919.667969 1589.613281 2982.554688 1551.640625 C 3045.4375 1513.671875 3115.4375 1494.683594 3192.558594 1494.683594 Z M 3192.558594 1494.683594 " fill-opacity="1" fill-rule="nonzero"/></g><g clip-path="url(#8b1a93e1f1)"><g transform="matrix(1, 0, 0, 1, 1910, 1284)"><g clip-path="url(#3ea55b58d8)"><g clip-path="url(#563ce50ebd)"><path fill="#000000" d="M 546.945312 157.296875 C 462.160156 157.296875 386.199219 175.089844 319.050781 210.675781 C 250.296875 247.117188 196.152344 301.464844 156.617188 373.710938 C 117.84375 444.582031 98.453125 529.652344 98.453125 628.925781 L 98.453125 1257.171875 L 365.417969 1257.171875 L 365.417969 652.066406 C 365.417969 568.777344 384.671875 506.457031 423.179688 465.089844 C 460.675781 424.820312 512.609375 404.683594 578.980469 404.683594 C 647.636719 404.683594 701.59375 425.949219 740.859375 468.484375 C 781.246094 512.242188 801.445312 578.183594 801.445312 666.300781 L 801.445312 1257.171875 L 1068.40625 1257.171875 L 1068.40625 652.066406 C 1068.40625 568.777344 1087.664062 506.457031 1126.171875 465.089844 C 1163.664062 424.820312 1215.601562 404.683594 1281.972656 404.683594 C 1350.628906 404.683594 1404.589844 425.949219 1443.847656 468.484375 C 1484.238281 512.242188 1504.4375 578.183594 1504.4375 666.300781 L 1504.4375 1257.171875 L 1773.179688 1257.171875 L 1773.179688 175.09375 L 1504.4375 175.09375 L 1504.4375 369.085938 L 1557.832031 369.085938 L 1603.050781 340.695312 C 1565.753906 281.296875 1515.699219 235.726562 1452.890625 203.976562 C 1391.328125 172.855469 1323.683594 157.296875 1249.9375 157.296875 C 1158.421875 157.296875 1077.0625 178.121094 1005.851562 219.777344 C 932.910156 262.4375 878.699219 324.710938 843.222656 406.589844 L 892.210938 427.820312 L 941.84375 408.136719 C 910.136719 328.171875 857.703125 266.101562 784.554688 221.9375 C 713.183594 178.847656 633.980469 157.296875 546.945312 157.296875 Z M 546.945312 264.085938 C 614.15625 264.085938 674.957031 280.507812 729.355469 313.351562 C 781.972656 345.117188 819.710938 389.835938 842.578125 447.5 L 890.027344 567.148438 L 941.203125 449.046875 C 967.417969 388.550781 1006.941406 342.851562 1059.769531 311.953125 C 1114.328125 280.042969 1177.71875 264.085938 1249.9375 264.085938 C 1306.710938 264.085938 1358.300781 275.816406 1404.710938 299.277344 C 1449.871094 322.105469 1485.839844 354.839844 1512.613281 397.480469 L 1611.222656 554.53125 L 1611.222656 228.492188 L 1557.832031 228.492188 L 1557.832031 281.882812 L 1719.785156 281.882812 L 1719.785156 228.492188 L 1666.394531 228.492188 L 1666.394531 1203.78125 L 1719.785156 1203.78125 L 1719.785156 1150.386719 L 1557.832031 1150.386719 L 1557.832031 1203.78125 L 1611.222656 1203.78125 L 1611.222656 666.300781 C 1611.222656 550.347656 1581.589844 460.261719 1522.3125 396.050781 C 1461.914062 330.613281 1381.800781 297.894531 1281.972656 297.894531 C 1184.609375 297.894531 1106.625 329.371094 1048.015625 392.324219 C 990.421875 454.191406 961.621094 540.769531 961.621094 652.066406 L 961.621094 1203.78125 L 1015.015625 1203.78125 L 1015.015625 1150.386719 L 854.839844 1150.386719 L 854.839844 1203.78125 L 908.234375 1203.78125 L 908.234375 666.300781 C 908.234375 550.347656 878.597656 460.261719 819.324219 396.050781 C 758.921875 330.613281 678.808594 297.894531 578.980469 297.894531 C 481.617188 297.894531 403.636719 329.371094 345.023438 392.324219 C 287.425781 454.191406 258.628906 540.769531 258.628906 652.066406 L 258.628906 1203.78125 L 312.019531 1203.78125 L 312.019531 1150.386719 L 151.847656 1150.386719 L 151.847656 1203.78125 L 205.242188 1203.78125 L 205.242188 628.925781 C 205.242188 547.855469 220.257812 479.871094 250.300781 424.972656 C 279.582031 371.457031 319.171875 331.476562 369.058594 305.03125 C 420.566406 277.734375 479.859375 264.085938 546.945312 264.085938 Z M 546.945312 264.085938 " fill-opacity="1" fill-rule="nonzero"/></g><g clip-path="url(#8edfd14bda)"><path fill="#000000" d="M 546.941406 210.683594 C 471.003906 210.683594 403.371094 226.410156 344.050781 257.855469 C 284.730469 289.292969 237.867188 336.457031 203.460938 399.339844 C 169.042969 462.222656 151.832031 538.75 151.832031 628.925781 L 151.832031 1203.78125 L 312.007812 1203.78125 L 312.007812 652.058594 C 312.007812 554.769531 336.039062 480.316406 384.09375 428.707031 C 432.152344 377.097656 497.109375 351.292969 578.96875 351.292969 C 663.214844 351.292969 730.257812 378.285156 780.09375 432.269531 C 829.921875 486.257812 854.835938 564.265625 854.835938 666.296875 L 854.835938 1203.78125 L 1015.011719 1203.78125 L 1015.011719 652.058594 C 1015.011719 554.769531 1039.042969 480.316406 1087.097656 428.707031 C 1135.144531 377.097656 1200.101562 351.292969 1281.972656 351.292969 C 1366.21875 351.292969 1433.253906 378.285156 1483.082031 432.269531 C 1532.910156 486.257812 1557.824219 564.265625 1557.824219 666.296875 L 1557.824219 1203.78125 L 1719.78125 1203.78125 L 1719.78125 228.488281 L 1557.824219 228.488281 L 1557.824219 369.078125 C 1525.792969 318.066406 1482.789062 278.910156 1428.800781 251.621094 C 1374.816406 224.332031 1315.191406 210.683594 1249.929688 210.683594 C 1168.074219 210.683594 1095.699219 229.074219 1032.816406 265.859375 C 969.933594 302.640625 923.0625 356.628906 892.207031 427.816406 C 864.917969 359.003906 819.832031 305.613281 756.945312 267.640625 C 694.066406 229.671875 624.0625 210.683594 546.941406 210.683594 Z M 546.941406 210.683594 " fill-opacity="1" fill-rule="nonzero"/></g></g></g></g><g transform="matrix(1, 0, 0, 1, 2002, 2387)"><g clip-path="url(#f0063096c4)"><g fill="#000000" fill-opacity="1"><g transform="translate(0.979516, 399.847343)"><g><path d="M 100.3125 -184.75 L 100.3125 0 L 62.9375 0 L 62.9375 -184.75 L 9.65625 -184.75 L 9.65625 -218.078125 L 152.65625 -218.078125 L 152.65625 -184.75 Z M 100.3125 -184.75 "/></g></g></g><g fill="#000000" fill-opacity="1"><g transform="translate(166.097851, 399.847343)"><g><path d="M 149.546875 0 L 149.546875 -95.015625 L 56.390625 -95.015625 L 56.390625 0 L 18.6875 0 L 18.6875 -218.078125 L 56.390625 -218.078125 L 56.390625 -128.359375 L 149.546875 -128.359375 L 149.546875 -218.078125 L 188.484375 -218.078125 L 188.484375 0 Z M 149.546875 0 "/></g></g></g><g fill="#000000" fill-opacity="1"><g transform="translate(370.782311, 399.847343)"><g><path d="M 143.3125 0 L 130.234375 -47.359375 L 57.328125 -47.359375 L 43.921875 0 L 7.78125 0 L 71.65625 -218.078125 L 121.8125 -218.078125 L 183.8125 0 Z M 94.40625 -184.4375 L 65.421875 -77.265625 L 122.125 -77.265625 Z M 94.40625 -184.4375 "/></g></g></g><g fill="#000000" fill-opacity="1"><g transform="translate(566.431987, 399.847343)"><g><path d="M 25.859375 0 L 25.859375 -218.078125 L 62.9375 -218.078125 L 62.9375 0 Z M 25.859375 0 "/></g></g></g><g fill="#000000" fill-opacity="1"><g transform="translate(658.025905, 399.847343)"><g/></g></g><g fill="#000000" fill-opacity="1"><g transform="translate(765.19708, 399.847343)"><g><path d="M 122.75 -222.4375 C 149.75 -222.4375 170.929688 -215.894531 186.296875 -202.8125 C 201.671875 -189.726562 209.359375 -175.191406 209.359375 -159.203125 C 209.359375 -148.816406 206.191406 -139.257812 199.859375 -130.53125 C 193.523438 -121.8125 186.617188 -115.0625 179.140625 -110.28125 C 159.203125 -97.195312 146.425781 -89.097656 140.8125 -85.984375 C 118.800781 -73.523438 101.359375 -59.816406 88.484375 -44.859375 C 84.953125 -41.117188 83.1875 -36.34375 83.1875 -30.53125 L 208.109375 -30.53125 L 208.109375 0 L 36.140625 0 C 36.140625 -14.957031 37.488281 -27.726562 40.1875 -38.3125 C 42.882812 -48.90625 48.390625 -58.566406 56.703125 -67.296875 C 63.347656 -74.566406 70.875 -81.316406 79.28125 -87.546875 C 87.695312 -93.773438 94.96875 -98.601562 101.09375 -102.03125 C 107.21875 -105.457031 115.992188 -110.078125 127.421875 -115.890625 C 157.117188 -130.847656 171.96875 -145.90625 171.96875 -161.0625 C 171.96875 -170.625 166.515625 -178.625 155.609375 -185.0625 C 144.710938 -191.5 132.515625 -194.71875 119.015625 -194.71875 C 105.097656 -194.71875 93.878906 -191.238281 85.359375 -184.28125 C 76.847656 -177.320312 72.59375 -168.753906 72.59375 -158.578125 C 72.59375 -152.765625 74.460938 -146.117188 78.203125 -138.640625 L 42.0625 -124.625 C 35.832031 -133.757812 32.71875 -144.039062 32.71875 -155.46875 C 32.71875 -175.195312 41.285156 -191.289062 58.421875 -203.75 C 75.554688 -216.207031 97 -222.4375 122.75 -222.4375 Z M 122.75 -222.4375 "/></g></g></g><g fill="#000000" fill-opacity="1"><g transform="translate(982.343314, 399.847343)"><g><path d="M 206.25 -109.96875 C 206.25 -36.65625 175.816406 0 114.953125 0 C 98.960938 0 84.992188 -3.007812 73.046875 -9.03125 C 61.109375 -15.050781 51.765625 -23.359375 45.015625 -33.953125 C 38.265625 -44.546875 33.28125 -56.125 30.0625 -68.6875 C 26.84375 -81.257812 25.234375 -94.816406 25.234375 -109.359375 C 25.234375 -122.648438 26.84375 -135.421875 30.0625 -147.671875 C 33.28125 -159.921875 38.210938 -171.445312 44.859375 -182.25 C 51.503906 -193.050781 60.847656 -201.722656 72.890625 -208.265625 C 84.941406 -214.804688 98.960938 -218.078125 114.953125 -218.078125 C 132.191406 -218.078125 147.039062 -214.910156 159.5 -208.578125 C 171.96875 -202.242188 181.421875 -193.675781 187.859375 -182.875 C 194.296875 -172.070312 198.96875 -160.695312 201.875 -148.75 C 204.789062 -136.8125 206.25 -123.882812 206.25 -109.96875 Z M 116.515625 -192.84375 C 106.753906 -192.84375 98.289062 -190.242188 91.125 -185.046875 C 83.957031 -179.859375 78.503906 -173.003906 74.765625 -164.484375 C 71.023438 -155.972656 68.269531 -147.148438 66.5 -138.015625 C 64.738281 -128.878906 63.859375 -119.328125 63.859375 -109.359375 C 63.859375 -99.796875 64.640625 -90.445312 66.203125 -81.3125 C 67.765625 -72.175781 70.3125 -63.085938 73.84375 -54.046875 C 77.375 -45.015625 82.769531 -37.742188 90.03125 -32.234375 C 97.300781 -26.734375 105.921875 -23.984375 115.890625 -23.984375 C 124.203125 -23.984375 131.472656 -25.800781 137.703125 -29.4375 C 143.929688 -33.070312 148.863281 -37.691406 152.5 -43.296875 C 156.132812 -48.910156 159.09375 -55.609375 161.375 -63.390625 C 163.664062 -71.179688 165.171875 -78.660156 165.890625 -85.828125 C 166.617188 -92.992188 166.984375 -100.628906 166.984375 -108.734375 C 166.984375 -164.804688 150.160156 -192.84375 116.515625 -192.84375 Z M 116.515625 -192.84375 "/></g></g></g><g fill="#000000" fill-opacity="1"><g transform="translate(1199.489483, 399.847343)"><g><path d="M 206.25 -109.96875 C 206.25 -36.65625 175.816406 0 114.953125 0 C 98.960938 0 84.992188 -3.007812 73.046875 -9.03125 C 61.109375 -15.050781 51.765625 -23.359375 45.015625 -33.953125 C 38.265625 -44.546875 33.28125 -56.125 30.0625 -68.6875 C 26.84375 -81.257812 25.234375 -94.816406 25.234375 -109.359375 C 25.234375 -122.648438 26.84375 -135.421875 30.0625 -147.671875 C 33.28125 -159.921875 38.210938 -171.445312 44.859375 -182.25 C 51.503906 -193.050781 60.847656 -201.722656 72.890625 -208.265625 C 84.941406 -214.804688 98.960938 -218.078125 114.953125 -218.078125 C 132.191406 -218.078125 147.039062 -214.910156 159.5 -208.578125 C 171.96875 -202.242188 181.421875 -193.675781 187.859375 -182.875 C 194.296875 -172.070312 198.96875 -160.695312 201.875 -148.75 C 204.789062 -136.8125 206.25 -123.882812 206.25 -109.96875 Z M 116.515625 -192.84375 C 106.753906 -192.84375 98.289062 -190.242188 91.125 -185.046875 C 83.957031 -179.859375 78.503906 -173.003906 74.765625 -164.484375 C 71.023438 -155.972656 68.269531 -147.148438 66.5 -138.015625 C 64.738281 -128.878906 63.859375 -119.328125 63.859375 -109.359375 C 63.859375 -99.796875 64.640625 -90.445312 66.203125 -81.3125 C 67.765625 -72.175781 70.3125 -63.085938 73.84375 -54.046875 C 77.375 -45.015625 82.769531 -37.742188 90.03125 -32.234375 C 97.300781 -26.734375 105.921875 -23.984375 115.890625 -23.984375 C 124.203125 -23.984375 131.472656 -25.800781 137.703125 -29.4375 C 143.929688 -33.070312 148.863281 -37.691406 152.5 -43.296875 C 156.132812 -48.910156 159.09375 -55.609375 161.375 -63.390625 C 163.664062 -71.179688 165.171875 -78.660156 165.890625 -85.828125 C 166.617188 -92.992188 166.984375 -100.628906 166.984375 -108.734375 C 166.984375 -164.804688 150.160156 -192.84375 116.515625 -192.84375 Z M 116.515625 -192.84375 "/></g></g></g><g fill="#000000" fill-opacity="1"><g transform="translate(1416.635782, 399.847343)"><g><path d="M 182.875 -55.453125 L 182.875 0 L 142.6875 0 L 142.6875 -55.453125 L 21.5 -55.453125 L 21.5 -84.421875 L 130.234375 -218.078125 L 182.5625 -218.078125 L 182.5625 -81.3125 L 218.078125 -81.3125 L 218.078125 -55.453125 Z M 142.375 -189.109375 L 58.875 -81.3125 L 142.375 -81.3125 Z M 142.375 -189.109375 "/></g></g></g></g></g></svg>